<?xml version="1.0" standalone="no"?>
<!DOCTYPE svg PUBLIC "-//W3C//DTD SVG 20010904//EN"
 "http://www.w3.org/TR/2001/REC-SVG-20010904/DTD/svg10.dtd">
<svg version="1.0" xmlns="http://www.w3.org/2000/svg"
viewBox="0 0 512.000000 512.000000"
 preserveAspectRatio="xMidYMid meet" fill="gray">

<g transform="translate(0.000000,512.000000) scale(0.100000,-0.100000)"
>
<path d="M590 2560 l0 -2560 1970 0 1970 0 -1 2208 0 2207 -365 353 -365 352
-1604 0 -1605 0 0 -2560z m3030 1950 l0 -270 285 0 285 0 0 -1950 0 -1950
-1630 0 -1630 0 0 2220 0 2220 1345 0 1345 0 0 -270z"/>
<path d="M1928 2891 c-210 -69 -327 -244 -328 -490 0 -236 123 -418 329 -481
76 -24 221 -29 292 -10 161 44 291 185 306 335 l6 55 -146 0 -146 0 -11 -41
c-6 -22 -26 -57 -44 -76 -28 -31 -40 -37 -88 -41 -116 -9 -187 72 -196 227 -8
138 24 229 98 279 29 20 44 23 93 20 49 -4 62 -9 92 -38 19 -18 40 -49 46 -67
l11 -33 144 0 144 0 -6 43 c-18 115 -85 221 -174 275 -78 47 -110 54 -245 58
-97 3 -131 0 -177 -15z"/>
<path d="M2563 2876 c3 -8 56 -182 117 -388 61 -205 125 -417 141 -470 l30
-98 168 0 168 0 147 471 c81 258 150 477 153 485 4 12 -19 14 -151 14 l-155 0
-10 -37 c-44 -172 -143 -539 -146 -541 -5 -5 -12 19 -93 323 l-68 250 -153 3
c-131 2 -153 0 -148 -12z"/>
</g>
</svg>
