<svg xmlns="http://www.w3.org/2000/svg" width="38" height="48" viewBox="0 0 52 65" fill="white"><path class="cls-1" d="M59.31,45.4a32.85,32.85,0,0,1-16.5,4.1C25,49.1,11,34.8,11.31,17.4a30.18,30.18,0,0,1,4.9-16A31.2,31.2,0,0,0,0,28.1c-.4,17.3,13.7,31.7,31.4,32.1a32.21,32.21,0,0,0,27.9-14.8"></path><path class="cls-2" d="M33.31,0A27.4,27.4,0,0,0,20,3.4,28.43,28.43,0,0,0,15.91,17c-.3,15.1,12,27.6,27.3,27.9h0A29.87,29.87,0,0,0,57,41.6a27.68,27.68,0,0,0,3.8-14A27.38,27.38,0,0,0,33.31,0Z"></path></svg>