<svg xmlns="http://www.w3.org/2000/svg" width="38" height="48" viewBox="0 0 52 65"><path fill="#FFF" d="M19.952 0C37.04 0 50.894 14.297 50.894 31.936c0 15.28-10.402 28.047-24.292 31.187-7.495-6.801-13.007-15.869-15.524-26.172.477.057.957.094 1.448.094 6.836 0 12.377-5.718 12.377-12.774 0-7.056-5.54-12.775-12.377-12.775-.49 0-.97.038-1.448.095.96-3.933 2.364-7.684 4.142-11.201C16.763.144 18.34 0 19.952 0zm-8.874 11.592c-.99 4.057-1.523 8.304-1.523 12.678 0 4.376.532 8.623 1.523 12.68C4.928 36.21.151 30.82.151 24.27c0-6.547 4.776-11.938 10.927-12.678z"></path></svg>